<svg xmlns="http://www.w3.org/2000/svg" xmlns:xlink="http://www.w3.org/1999/xlink" id="Layer_1" x="0" y="0" enable-background="new 0 0 512 512" version="1.1" viewBox="0 0 512 512" xml:space="preserve"><g id="XMLID_443_"><linearGradient id="SVGID_1_" x1="255.328" x2="255.328" y1="9" y2="484.624" gradientUnits="userSpaceOnUse"><stop offset="0" stop-color="#F57C00"/><stop offset=".148" stop-color="#F78901"/><stop offset=".422" stop-color="#FCAB05"/><stop offset=".574" stop-color="#FFC107"/></linearGradient><circle cx="255.3" cy="246.8" r="237.8" fill="url(#SVGID_1_)"/><g id="XMLID_285_"><g id="XMLID_287_"><linearGradient id="XMLID_2_" x1="75.771" x2="210.291" y1="361.026" y2="495.546" gradientUnits="userSpaceOnUse"><stop offset="0" stop-color="#2196F3"/><stop offset=".117" stop-color="#1E8FEB"/><stop offset=".302" stop-color="#157AD4"/><stop offset=".531" stop-color="#0659AF"/><stop offset=".615" stop-color="#004BA0"/></linearGradient><path id="XMLID_298_" fill="url(#XMLID_2_)" d="M166.9,410.1c-1.9,2.8-4.6,5.6-7.9,5.4c-2.4-0.1-4.6-1.9-5.7-4 c-1.2-2.1-1.5-4.6-1.7-7.1c-0.9-8.9-1.2-21.6,2-31.6c-13.4-1.4-29.1-0.9-47.2,2.4c2.9,6.7,4.5,14.1,4.5,21.4c0,1.1-0.1,2.3-1,3 c-1.3,0.9-3.1-0.1-4.2-1.2c-5.3-4.9-9.7-10.8-13.1-17.2c-0.4-0.8-0.9-1.7-1.3-2.6c-15.2,3.8-31.9,9.4-50.3,17.3 c5.5,11.8,11.1,22.4,16.8,31.9c7.1-4.2,15-7.7,23-6.3c2.1,0.4,4.2,1.1,5.9,2.5c1.6,1.4,2.7,3.6,2.3,5.7c-0.5,3-3.5,5-6.2,6.4 c-1.9,1-8.6,4.2-15.6,6.4c9.2,13.6,18.6,24.6,27.7,33.3c0.2-0.2,0.3-0.5,0.5-0.7c4.7-6.3,10.9-11.5,17.9-14.9 c2.1-1,4.4-1.9,6.7-2.1c2.3-0.1,4.8,0.5,6.5,2.2c1.9,2,2.3,5.2,1.5,7.9c-0.8,2.7-2.5,5-4.3,7.2c-3.5,4-8.4,9.2-13.7,12.9 c15.1,10.8,29.4,16,42.1,17.5c0-4.1,0.5-8.2,0.8-10.5c0.6-4.1,1.7-8.3,5.1-10.9c1.6-1.3,3.8-2,5.8-1.6c4.6,0.8,6.2,5.5,6.9,9.7 c0.6,3.7,0.9,7.4,0.8,11.2c0,0.6,0,1.2-0.1,1.9c24.4-4.1,36.7-21.3,24.7-26.6c-10.6-4.6-15.9-10.3-18.5-15.5 c-2.3-4.6,2.2-9.6,7.1-8.1l49.9,15.9l1-2.7l-47.7-21.4c-4.7-2.1-4.7-8.9,0.1-10.8c5.4-2.2,13.2-2.8,24.1,0.8 c18.1,5.9,14.8-41.1-33-58.8c-0.3,2.8-1,5.6-1.8,8.3C174.8,395,171.7,403.1,166.9,410.1z M153.5,471.4c1.1,0.6,1.7,1.9,1.7,3.2 c0.1,1.3-0.2,2.5-0.5,3.7c-0.4,1.7-0.9,3.4-1.3,5.1c-0.6,2.2-1.5,4.8-3.7,5.3c-1.9,0.5-3.9-0.9-4.7-2.7c-2-4.2,0-11.7,4-14.2 C150.4,471,152.2,470.6,153.5,471.4z M130.7,406.5c1,3,1.1,6.3,0.7,9.5c-0.3,2.3-1.1,5.1-3.4,5.8c-5.4,1.7-10.6-8.5-11.5-12.7 c-1.1-5.5,4.1-11.6,9.8-8.3C128.5,402,130,404.2,130.7,406.5z"/></g><g id="XMLID_293_"><linearGradient id="XMLID_3_" x1="300.195" x2="300.195" y1="175.398" y2="472.984" gradientUnits="userSpaceOnUse"><stop offset="0" stop-color="#2196F3"/><stop offset=".318" stop-color="#004BA0"/></linearGradient><path id="XMLID_294_" fill="url(#XMLID_3_)" d="M345.1,366c-4.3-2.7-8.7-6.5-8.7-11.5c0-3.7,2.5-7,5.7-8.9 c3.2-1.9,6.9-2.6,10.5-3.1c13.4-1.9,32.4-3.2,47.6,0.9c1.3-20.3-0.6-43.8-6.8-70.9c-9.9,4.9-20.9,7.7-31.9,8.2 c-1.6,0.1-3.5,0-4.5-1.3c-1.5-1.9,0-4.6,1.6-6.5c7.1-8.3,15.6-15.4,25-20.8c1.2-0.7,2.5-1.4,3.9-2.1 c-6.7-22.6-16.3-47.4-29.3-74.6c-17.4,9-32.9,18.2-46.9,27.3c6.8,10.5,12.5,22,11,34.2c-0.4,3.2-1.4,6.5-3.4,9 c-2,2.5-5.3,4.3-8.5,3.9c-4.6-0.5-7.7-4.9-10-8.9c-1.6-2.8-6.9-12.7-10.7-23.1c-19.9,14.8-35.8,29.5-48.3,43.9 c0.4,0.2,0.8,0.4,1.1,0.7c9.8,6.6,18,15.6,23.6,26c1.7,3.1,3.2,6.4,3.5,10c0.4,3.5-0.5,7.3-2.9,9.9c-2.9,3-7.7,3.8-11.8,2.8 c-4.1-1-7.7-3.4-11.1-6c-6.3-4.9-14.3-12.1-20.3-19.8c-15.2,23.4-22.1,45.3-23.6,64.5c6.1-0.3,12.3,0.2,15.9,0.5 c6.2,0.6,12.6,2.1,16.8,7c2,2.4,3.2,5.5,2.8,8.7c-0.9,6.9-7.9,9.7-14.2,11.1c-5.5,1.2-11.1,1.8-16.8,1.9c-0.9,0-1.9,0-2.8,0 c7.7,36.4,34.5,53.9,41.7,35.5c6.3-16.2,14.4-24.6,22.1-28.9c6.7-3.7,14.6,2.7,12.6,10.2l-20.6,76.1l4.1,1.4l29.1-73.3 c2.8-7.2,13-7.6,16.2-0.6c3.6,8,5.1,19.7,0.4,36.4c-7.7,27.6,62.9,19.6,86.3-53.6c-4.2-0.3-8.4-1.1-12.5-2.1 C368.3,376.9,356,372.8,345.1,366z M252,349.9c-0.9,1.7-2.8,2.6-4.7,2.8c-1.9,0.2-3.8-0.2-5.6-0.6c-2.6-0.5-5.2-1.1-7.8-1.6 c-3.4-0.7-7.3-1.9-8.3-5.2c-0.9-2.8,1.1-5.9,3.8-7.3c6.2-3.2,17.5-0.8,21.6,5C252.3,345.1,253.1,347.7,252,349.9z M348.2,311.3 c-4.5,1.8-9.5,2-14.3,1.7c-3.6-0.3-7.7-1.4-8.9-4.7c-2.9-8,12.1-16.5,18.3-18.1c8.3-2,17.8,5.5,13.2,14.3 C354.8,307.7,351.6,310,348.2,311.3z"/></g><g id="XMLID_286_"><linearGradient id="XMLID_4_" x1="102.709" x2="224.982" y1="263.905" y2="475.688" gradientUnits="userSpaceOnUse"><stop offset="0" stop-color="#1976D2"/><stop offset=".193" stop-color="#125EB6"/><stop offset=".568" stop-color="#053284"/><stop offset=".753" stop-color="#002171"/></linearGradient><path id="XMLID_288_" fill="url(#XMLID_4_)" d="M205.1,366.8c-3.7,1.5-8.1,2.6-11.3,0.3c-2.4-1.7-3.3-4.8-3.1-7.7 c0.2-2.9,1.5-5.6,2.8-8.1c4.9-9.4,12.6-22.2,22.2-30.1c-12.4-10-28.3-19.5-48.5-27.8c-1.4,8.6-4.5,16.9-9.3,24.2 c-0.7,1.1-1.6,2.2-2.9,2.3c-1.9,0.1-3-2.1-3.4-3.9c-2.1-8.3-2.8-17-2-25.5c0.1-1.1,0.2-2.3,0.4-3.5c-17.6-6-37.8-11.1-61.1-15.1 c-2.1,15.2-3.3,29.4-3.8,42.5c9.8,0.4,19.8,2,26.9,8.5c1.9,1.7,3.5,3.8,4.2,6.3c0.7,2.5,0.3,5.3-1.4,7.2 c-2.4,2.7-6.6,2.7-10.3,2.4c-2.5-0.2-11.2-1.4-19.7-3.6c0.5,19.5,2.7,36.4,6.2,50.9c0.3-0.1,0.6-0.3,0.9-0.4 c8.7-3.3,18.2-4.5,27.4-3.3c2.8,0.3,5.6,0.9,8,2.3c2.4,1.4,4.5,3.6,5,6.4c0.6,3.3-1.1,6.7-3.6,8.8c-2.5,2.2-5.7,3.4-8.9,4.4 c-6,1.8-14.2,3.7-21.9,4c8.1,20.4,19,34.7,30.6,44.4c2.6-4,5.7-7.8,7.6-9.9c3.2-3.7,7-7.1,12.1-7.6c2.5-0.2,5,0.5,6.8,2.1 c4,3.7,2.7,9.5,0.7,14.1c-1.8,4.1-3.9,8-6.4,11.6c-0.4,0.6-0.8,1.2-1.3,1.8c26.8,11.6,50.2,2.3,41.6-10.6 c-7.5-11.4-9.3-20.4-8.5-27.3c0.7-6,8.4-8.1,12.2-3.5l39.4,47.8l2.8-2l-33.7-51.9c-3.3-5.1,1-11.8,7-10.6 c6.8,1.3,14.9,5.7,23.5,16.3c14.1,17.5,41.1-31.4,4.8-79.6c-2.1,2.6-4.5,4.9-7,7.1C222.6,356.9,214.4,362.9,205.1,366.8z M152.5,419.2c0.7,1.3,0.4,3-0.3,4.3c-0.7,1.3-1.8,2.3-2.9,3.4c-1.5,1.4-3,2.8-4.6,4.2c-2,1.8-4.5,3.8-7.1,2.9 c-2.2-0.7-3.3-3.4-2.9-5.7c0.8-5.5,7.5-11.6,13-11.5C149.6,416.8,151.6,417.5,152.5,419.2z M171.5,340c-0.9,3.7-3,7-5.4,9.9 c-1.8,2.2-4.4,4.3-7.1,3.6c-6.5-1.8-5.1-15.3-3.3-19.9c2.4-6.2,11.6-8.9,15.1-2C172.1,334.2,172.2,337.2,171.5,340z"/></g><g id="XMLID_304_"><linearGradient id="XMLID_5_" x1="325.002" x2="403.832" y1="325.002" y2="461.539" gradientUnits="userSpaceOnUse"><stop offset="0" stop-color="#1976D2"/><stop offset=".344" stop-color="#1159B1"/><stop offset=".939" stop-color="#002171"/></linearGradient><path id="XMLID_305_" fill="url(#XMLID_5_)" d="M374.1,429.1c-2.2-3.3-4.2-7.4-2.6-11c1.2-2.6,4-4.2,6.9-4.6 c2.9-0.4,5.8,0.3,8.5,1.1c10.2,2.9,24.3,7.9,34,15.7c7.3-14.2,13.4-31.7,17.5-53.1c-8.7,0.4-17.5-1-25.5-4.2 c-1.2-0.5-2.5-1.1-2.8-2.4c-0.5-1.8,1.5-3.3,3.2-4.1c7.7-3.8,16.1-6.1,24.6-7.1c1.1-0.1,2.3-0.2,3.5-0.3 c2.3-18.4,3.3-39.2,2.5-62.9c-15.4,1-29.4,2.7-42.4,4.8c1.6,9.7,2,19.8-2.9,28.1c-1.3,2.2-3,4.2-5.3,5.4 c-2.3,1.2-5.1,1.4-7.3,0.1c-3.1-1.8-4-5.9-4.4-9.6c-0.3-2.5-0.9-11.3-0.4-20c-19,4.4-35.1,9.9-48.6,16.3c0.2,0.3,0.4,0.6,0.6,0.8 c5,7.8,8,16.9,8.8,26.2c0.2,2.8,0.2,5.6-0.6,8.3c-0.8,2.7-2.7,5.1-5.2,6.2c-3.1,1.3-6.7,0.3-9.4-1.7c-2.7-2-4.5-4.9-6.1-7.8 c-3-5.5-6.5-13.2-8.3-20.7c-18.3,12-30.2,25.6-37.4,38.9c4.5,1.7,8.8,4,11.2,5.4c4.2,2.4,8.4,5.4,9.8,10.3c0.7,2.4,0.5,5-0.7,7.1 c-2.8,4.7-8.8,4.5-13.7,3.5c-4.3-0.9-8.6-2.2-12.7-3.9c-0.7-0.3-1.3-0.6-2-0.9c-6,28.6,7.8,49.7,18.8,38.7 c9.6-9.7,18.1-13.2,25-13.8c6-0.6,9.6,6.6,5.8,11.3l-38.9,48.2l2.5,2.3l44.1-43.5c4.3-4.2,11.8-1.4,11.8,4.7 c0.1,6.9-2.6,15.7-11.2,26.3c-14.3,17.4,39,34,79-11.3c-2.9-1.6-5.7-3.5-8.4-5.5C387.3,444.2,379.8,437.4,374.1,429.1z M312.2,388c-1.2,0.9-2.8,1-4.3,0.6c-1.4-0.4-2.7-1.3-3.9-2.2c-1.7-1.2-3.4-2.4-5.1-3.6c-2.2-1.6-4.6-3.7-4.3-6.4 c0.3-2.3,2.7-3.9,5-4c5.5-0.4,12.9,5,13.9,10.4C314,384.7,313.7,386.9,312.2,388z M393.6,390.7c-3.8-0.2-7.5-1.5-10.8-3.3 c-2.5-1.3-5.1-3.4-4.9-6.2c0.4-6.7,13.9-8.1,18.9-7.2c6.6,1.1,11,9.5,5,14.4C399.4,390.2,396.5,390.8,393.6,390.7z"/></g></g><g id="XMLID_271_"><linearGradient id="XMLID_6_" x1="166.531" x2="352.087" y1="242.466" y2="428.022" gradientUnits="userSpaceOnUse"><stop offset="0" stop-color="#ECEFF1"/><stop offset=".587" stop-color="#D7DFE2"/><stop offset=".994" stop-color="#CFD8DC"/></linearGradient><path id="XMLID_275_" fill="url(#XMLID_6_)" d="M317,286.1C290.6,244.9,295.6,186,295.6,186H223c0,0,4.9,59-21.4,100.2 c-24,37.5-2.8,84.6,51,86.4l3.8,92.4c-23.4,0.3-41.9,4.6-41.9,9.9c0,5.5,20.1,9.9,44.9,9.9c24.8,0,44.9-4.4,44.9-9.9 c0-5.2-18.5-9.5-41.9-9.9l3.8-92.4C319.9,370.7,341,323.7,317,286.1z"/><g id="XMLID_284_"><linearGradient id="XMLID_7_" x1="259.309" x2="259.309" y1="262.378" y2="362.885" gradientUnits="userSpaceOnUse"><stop offset="0" stop-color="#FF5722"/><stop offset=".245" stop-color="#F74F1D"/><stop offset=".633" stop-color="#E03810"/><stop offset="1" stop-color="#C41C00"/></linearGradient><path id="XMLID_306_" fill="url(#XMLID_7_)" d="M295.1,262.4h-71.6c-3.3,10-7.7,19.9-13.6,29.1c-9.6,14.9-10.9,32.2-3.6,46.2 c8,15.2,25,24.3,46.6,25.1l6.4,0.2l6.4-0.2c21.6-0.7,38.6-9.9,46.6-25.1c7.3-14,6-31.2-3.6-46.2 C302.8,282.3,298.4,272.3,295.1,262.4z"/><g id="XMLID_277_"><linearGradient id="XMLID_8_" x1="259.309" x2="259.309" y1="246.539" y2="264.695" gradientUnits="userSpaceOnUse"><stop offset="0" stop-color="#FF9800"/><stop offset=".754" stop-color="#F37800"/><stop offset="1" stop-color="#EF6C00"/></linearGradient><path id="XMLID_450_" fill="url(#XMLID_8_)" d="M227.1,250.2c-1.2,4.8-2.6,9.7-4.3,14.5h73.1c-2.1-6.1-3.8-12.2-5.2-18.2 L227.1,250.2z"/><linearGradient id="SVGID_2_" x1="258.877" x2="258.877" y1="213.609" y2="250.179" gradientUnits="userSpaceOnUse"><stop offset="0" stop-color="#FFE082"/><stop offset=".294" stop-color="#FFD861"/><stop offset=".939" stop-color="#FFC30F"/><stop offset="1" stop-color="#FFC107"/></linearGradient><path fill="url(#SVGID_2_)" d="M288.5,235.5c-1.3-7.8-2.2-15.3-2.6-21.9h-53.1c-0.3,4.8-0.9,10-1.6,15.5 c-0.9,6.7-2.2,13.8-4.1,21.1l63.6-3.6C289.8,242.8,289.1,239.1,288.5,235.5z"/><linearGradient id="XMLID_9_" x1="227.743" x2="245.372" y1="205.173" y2="205.173" gradientUnits="userSpaceOnUse"><stop offset=".636" stop-color="#BA000D"/><stop offset=".705" stop-color="#B1000B"/><stop offset=".874" stop-color="#A00008"/><stop offset="1" stop-color="#9A0007"/></linearGradient><polygon id="XMLID_276_" fill="url(#XMLID_9_)" points="227.7 49.1 242.1 361.2 245.4 361.2 233.3 49.1"/><g id="XMLID_274_"><linearGradient id="XMLID_10_" x1="233.284" x2="233.284" y1="68.631" y2="158.327" gradientUnits="userSpaceOnUse"><stop offset=".636" stop-color="#BA000D"/><stop offset=".705" stop-color="#B1000B"/><stop offset=".874" stop-color="#A00008"/><stop offset="1" stop-color="#9A0007"/></linearGradient><path id="XMLID_272_" fill="url(#XMLID_10_)" d="M242.4,72.4c-3.8-5-16.5-5-20.4,0c-12.2,15.8-36.8,40.6-80.6,60v0 c-4.7,3.5,0.8,18.5,7.7,19.7c5.8,1,19.9-14.6,26.8-13.8c6,0.7,7.3,18.1,14.2,18.6c6.2,0.4,15.6-16.2,22.5-15.9 c6.3,0.2,11.9,17.3,18.7,17.3c6.9,0,12.5-17.1,18.7-17.3c6.9-0.2,16.4,16.4,22.5,15.9c6.9-0.5,8.1-17.9,14.2-18.6 c6.9-0.8,21,14.7,26.8,13.8c6.9-1.2,19.5-15.1,9.3-19.7l0,0C279.2,112.9,254.7,88.2,242.4,72.4z"/></g><g id="XMLID_302_"><linearGradient id="XMLID_11_" x1="257.486" x2="257.486" y1="68.889" y2="158.327" gradientUnits="userSpaceOnUse"><stop offset="0" stop-color="#ECEFF1"/><stop offset=".456" stop-color="#E9EDEF"/><stop offset=".726" stop-color="#E1E6E9"/><stop offset=".948" stop-color="#D3DBDF"/><stop offset=".994" stop-color="#CFD8DC"/></linearGradient><path id="XMLID_448_" fill="url(#XMLID_11_)" d="M235.7,72.5c-1.3-2.5-4.1-4-6.9-3.5c0,0,0,0,0,0c1.3,29.7-5.4,59.3,1,89 c0.5,0.2,1.1,0.4,1.7,0.4c6.9,0,12.5-17.1,18.7-17.3c6.9-0.2,16.4,16.4,22.5,15.9c6.9-0.5,8.1-17.9,14.2-18.6 c0.4,0,0.8,0,1.2,0C266.2,118.6,248.7,96.7,235.7,72.5z"/><linearGradient id="XMLID_12_" x1="182.648" x2="182.648" y1="69.87" y2="152.133" gradientUnits="userSpaceOnUse"><stop offset="0" stop-color="#ECEFF1"/><stop offset=".456" stop-color="#E9EDEF"/><stop offset=".726" stop-color="#E1E6E9"/><stop offset=".948" stop-color="#D3DBDF"/><stop offset=".994" stop-color="#CFD8DC"/></linearGradient><path id="XMLID_446_" fill="url(#XMLID_12_)" d="M225.6,69.9c-1.5,0.6-2.7,1.4-3.5,2.5c-12.2,15.8-36.8,40.6-80.6,60v0 c-4.7,3.5,0.8,18.5,7.7,19.7c5.8,1,19.8-14.4,26.7-13.8C195.9,119.5,213.1,96,225.6,69.9z"/></g></g><linearGradient id="XMLID_13_" x1="254.47" x2="259.103" y1="307.94" y2="312.572" gradientUnits="userSpaceOnUse"><stop offset="0" stop-color="#E64A19"/><stop offset=".226" stop-color="#DF4216"/><stop offset=".585" stop-color="#CA2B0D"/><stop offset="1" stop-color="#AC0800"/></linearGradient><path id="XMLID_278_" fill="url(#XMLID_13_)" d="M257.1,306.9c1,0.7,1.9,1.8,2.1,3c0.1,0.4,0.1,0.7,0.1,1.1 c-0.1,1.1-1.1,3.4-2.5,2.8c-0.9-0.3-1.2-1.9-1.4-2.7C255,309.9,254.6,305.3,257.1,306.9z"/><linearGradient id="XMLID_14_" x1="266.023" x2="277.74" y1="286.568" y2="298.285" gradientUnits="userSpaceOnUse"><stop offset="0" stop-color="#E64A19"/><stop offset=".226" stop-color="#DF4216"/><stop offset=".585" stop-color="#CA2B0D"/><stop offset="1" stop-color="#AC0800"/></linearGradient><path id="XMLID_279_" fill="url(#XMLID_14_)" d="M269.4,284.3c1.9-0.5,4,0,5.6,1.2c1.6,1.2,2.7,2.9,3.3,4.8 c0.8,2.3,0.8,5-0.3,7.2c-1.1,2.2-3.5,3.8-6,3.6c-2.5-0.2-4.5-2.3-5.5-4.6C264.9,292.6,264,285.7,269.4,284.3z"/><linearGradient id="XMLID_15_" x1="294.902" x2="305.675" y1="318.858" y2="329.632" gradientUnits="userSpaceOnUse"><stop offset="0" stop-color="#E64A19"/><stop offset=".226" stop-color="#DF4216"/><stop offset=".585" stop-color="#CA2B0D"/><stop offset="1" stop-color="#AC0800"/></linearGradient><path id="XMLID_280_" fill="url(#XMLID_15_)" d="M301.9,332.7c-2.7,1.2-6.4,0.5-7.9-2.1c-0.9-1.4-1-3.1-0.9-4.8 c0.2-5.2,3.4-11.2,9.4-10.7c5.1,0.4,5.6,6.8,4.7,10.6C306.4,328.6,304.7,331.5,301.9,332.7z"/><linearGradient id="XMLID_16_" x1="268.41" x2="280.05" y1="335.137" y2="346.776" gradientUnits="userSpaceOnUse"><stop offset="0" stop-color="#E64A19"/><stop offset=".226" stop-color="#DF4216"/><stop offset=".585" stop-color="#CA2B0D"/><stop offset="1" stop-color="#AC0800"/></linearGradient><path id="XMLID_281_" fill="url(#XMLID_16_)" d="M277,348.9c-3.4,1.3-7.6,0.2-9.8-2.7c-2.2-2.9-2.1-7.3,0.3-10.1 c2.4-2.7,8-3.5,11.4-2.3c3.7,1.3,4.5,6.3,3.3,9.6C281.2,345.9,279.4,347.9,277,348.9z"/><linearGradient id="XMLID_17_" x1="214.07" x2="223.007" y1="304.358" y2="313.295" gradientUnits="userSpaceOnUse"><stop offset="0" stop-color="#E64A19"/><stop offset=".226" stop-color="#DF4216"/><stop offset=".585" stop-color="#CA2B0D"/><stop offset="1" stop-color="#AC0800"/></linearGradient><path id="XMLID_282_" fill="url(#XMLID_17_)" d="M219.7,302.7c1.6,0.7,2.6,2.4,3.2,4.1c0.6,1.7,0.9,3.6,0.3,5.3 c-1.9,6.1-8.4,2.3-10.2-1.8C211.4,306.5,215.4,300.8,219.7,302.7z"/><linearGradient id="XMLID_18_" x1="224.693" x2="231.162" y1="328.315" y2="334.784" gradientUnits="userSpaceOnUse"><stop offset="0" stop-color="#E64A19"/><stop offset=".226" stop-color="#DF4216"/><stop offset=".585" stop-color="#CA2B0D"/><stop offset="1" stop-color="#AC0800"/></linearGradient><path id="XMLID_283_" fill="url(#XMLID_18_)" d="M230.7,335.2c-3.9,4.1-9.5-3.6-5.7-7.3C229.5,323.7,234.2,331.7,230.7,335.2z"/></g></g><linearGradient id="XMLID_19_" x1="143.74" x2="163.035" y1="238.501" y2="238.501" gradientUnits="userSpaceOnUse"><stop offset="0" stop-color="#1565C0"/><stop offset=".394" stop-color="#1463BE"/><stop offset=".62" stop-color="#105CB5"/><stop offset=".804" stop-color="#0A50A7"/><stop offset=".964" stop-color="#024094"/><stop offset=".994" stop-color="#003C8F"/></linearGradient><path id="XMLID_303_" fill="url(#XMLID_19_)" d="M163,238.5c0,5.3-4.3,9.6-9.6,9.6c-5.3,0-9.6-4.3-9.6-9.6c0-5.3,4.3-9.6,9.6-9.6 C158.7,228.9,163,233.2,163,238.5z"/><linearGradient id="XMLID_20_" x1="163.683" x2="172.119" y1="209.391" y2="209.391" gradientUnits="userSpaceOnUse"><stop offset="0" stop-color="#1565C0"/><stop offset=".394" stop-color="#1463BE"/><stop offset=".62" stop-color="#105CB5"/><stop offset=".804" stop-color="#0A50A7"/><stop offset=".964" stop-color="#024094"/><stop offset=".994" stop-color="#003C8F"/></linearGradient><path id="XMLID_308_" fill="url(#XMLID_20_)" d="M172.1,209.4c0,2.3-1.9,4.2-4.2,4.2c-2.3,0-4.2-1.9-4.2-4.2c0-2.3,1.9-4.2,4.2-4.2 C170.2,205.2,172.1,207.1,172.1,209.4z"/><linearGradient id="XMLID_21_" x1="92.965" x2="116.435" y1="170.061" y2="170.061" gradientUnits="userSpaceOnUse"><stop offset="0" stop-color="#1565C0"/><stop offset=".394" stop-color="#1463BE"/><stop offset=".62" stop-color="#105CB5"/><stop offset=".804" stop-color="#0A50A7"/><stop offset=".964" stop-color="#024094"/><stop offset=".994" stop-color="#003C8F"/></linearGradient><path id="XMLID_309_" fill="url(#XMLID_21_)" d="M116.4,170.1c0,6.5-5.3,11.7-11.7,11.7S93,176.5,93,170.1 c0-6.5,5.3-11.7,11.7-11.7S116.4,163.6,116.4,170.1z"/><linearGradient id="XMLID_22_" x1="404.563" x2="422.554" y1="214.168" y2="214.168" gradientUnits="userSpaceOnUse"><stop offset="0" stop-color="#1565C0"/><stop offset=".394" stop-color="#1463BE"/><stop offset=".62" stop-color="#105CB5"/><stop offset=".804" stop-color="#0A50A7"/><stop offset=".964" stop-color="#024094"/><stop offset=".994" stop-color="#003C8F"/></linearGradient><path id="XMLID_437_" fill="url(#XMLID_22_)" d="M422.6,214.2c0,5-4,9-9,9c-5,0-9-4-9-9c0-5,4-9,9-9 C418.5,205.2,422.6,209.2,422.6,214.2z"/><linearGradient id="XMLID_23_" x1="400.631" x2="404.563" y1="163.422" y2="163.422" gradientUnits="userSpaceOnUse"><stop offset="0" stop-color="#1565C0"/><stop offset=".394" stop-color="#1463BE"/><stop offset=".62" stop-color="#105CB5"/><stop offset=".804" stop-color="#0A50A7"/><stop offset=".964" stop-color="#024094"/><stop offset=".994" stop-color="#003C8F"/></linearGradient><path id="XMLID_440_" fill="url(#XMLID_23_)" d="M404.6,163.4c0,1.1-0.9,2-2,2c-1.1,0-2-0.9-2-2c0-1.1,0.9-2,2-2 C403.7,161.5,404.6,162.3,404.6,163.4z"/><linearGradient id="XMLID_24_" x1="300.195" x2="313.751" y1="176.84" y2="176.84" gradientUnits="userSpaceOnUse"><stop offset="0" stop-color="#1565C0"/><stop offset=".394" stop-color="#1463BE"/><stop offset=".62" stop-color="#105CB5"/><stop offset=".804" stop-color="#0A50A7"/><stop offset=".964" stop-color="#024094"/><stop offset=".994" stop-color="#003C8F"/></linearGradient><path id="XMLID_441_" fill="url(#XMLID_24_)" d="M313.8,176.8c0,3.7-3,6.8-6.8,6.8c-3.7,0-6.8-3-6.8-6.8s3-6.8,6.8-6.8 C310.7,170.1,313.8,173.1,313.8,176.8z"/></g></svg>