<svg xmlns="http://www.w3.org/2000/svg" xmlns:xlink="http://www.w3.org/1999/xlink" id="Layer_1" x="0" y="0" enable-background="new 0 0 512 512" version="1.1" viewBox="0 0 512 512" xml:space="preserve"><linearGradient id="SVGID_1_" x1="255.328" x2="255.328" y1="9" y2="484.624" gradientUnits="userSpaceOnUse"><stop offset="0" stop-color="#F57C00"/><stop offset=".148" stop-color="#F78901"/><stop offset=".422" stop-color="#FCAB05"/><stop offset=".574" stop-color="#FFC107"/></linearGradient><circle cx="255.3" cy="246.8" r="237.8" fill="url(#SVGID_1_)"/><g><linearGradient id="SVGID_2_" x1="188.707" x2="110.62" y1="202.414" y2="337.664" gradientUnits="userSpaceOnUse"><stop offset=".544" stop-color="#EEE"/><stop offset=".663" stop-color="#E8E8E8"/><stop offset=".821" stop-color="#D7D7D7"/><stop offset=".999" stop-color="#BCBCBC"/><stop offset="1" stop-color="#BCBCBC"/></linearGradient><path fill="url(#SVGID_2_)" d="M58,261c0,0-26-43,15-79s74-2,74-2s40,79,66,95c0,0,9-6,20,9l-14,95C219,379,140,395,58,261z"/><linearGradient id="SVGID_3_" x1="75.054" x2="75.054" y1="229" y2="368.246" gradientUnits="userSpaceOnUse"><stop offset=".451" stop-color="#EEE"/><stop offset=".554" stop-color="#E1E1E1"/><stop offset=".745" stop-color="#BFBFBF"/><stop offset=".759" stop-color="#BCBCBC"/></linearGradient><path fill="url(#SVGID_3_)" d="M50,229c0,0,36,6,39,71c0,0,4,41,12,56c0,0-9,21-30,8c0,0-18-32-19-59C47,269,50,229,50,229z"/><linearGradient id="SVGID_4_" x1="93.661" x2="83.294" y1="372.779" y2="354.824" gradientUnits="userSpaceOnUse"><stop offset="0" stop-color="#C97B63"/><stop offset=".392" stop-color="#E6957C"/><stop offset=".73" stop-color="#F9A58C"/><stop offset=".972" stop-color="#FFAB91"/></linearGradient><path fill="url(#SVGID_4_)" d="M71,363c0,0,15-14,29-9c0,0,6,12-5,18C95,372,78,379,71,363z"/><linearGradient id="SVGID_5_" x1="159.118" x2="134.52" y1="334.269" y2="376.874" gradientUnits="userSpaceOnUse"><stop offset="0" stop-color="#EEE"/><stop offset=".265" stop-color="#E1E1E1"/><stop offset=".754" stop-color="#BFBFBF"/><stop offset=".79" stop-color="#BCBCBC"/></linearGradient><path fill="url(#SVGID_5_)" d="M98,310c0,0,25-12,70,43c0,0,17,22,41,25c0,0-13,17-26,14s-44-3-61-29C122,363,106,343,98,310z"/><linearGradient id="SVGID_6_" x1="207.297" x2="195.986" y1="397.773" y2="378.182" gradientUnits="userSpaceOnUse"><stop offset="0" stop-color="#C97B63"/><stop offset=".181" stop-color="#D6876E"/><stop offset=".515" stop-color="#F8A58B"/><stop offset=".574" stop-color="#FFAB91"/></linearGradient><path fill="url(#SVGID_6_)" d="M183,392c0,0,4-21,35-12c0,0,5,15-10,15S195,396,183,392z"/><linearGradient id="SVGID_7_" x1="281" x2="281" y1="276" y2="291" gradientUnits="userSpaceOnUse"><stop offset="0" stop-color="#EEE"/><stop offset=".99" stop-color="#BCBCBC"/></linearGradient><path fill="url(#SVGID_7_)" d="M276,291l-9-4c0,0,23-8,28-11C295,276,285,288,276,291z"/><linearGradient id="SVGID_8_" x1="294.492" x2="284.238" y1="299.273" y2="281.512" gradientUnits="userSpaceOnUse"><stop offset="0" stop-color="#C97B63"/><stop offset=".092" stop-color="#D1826A"/><stop offset=".682" stop-color="#FFAB91"/></linearGradient><path fill="url(#SVGID_8_)" d="M273,288c0,0,11-3,22-12c0,0,1-1,2,2c0,0,1,20-9,25L273,288z"/><linearGradient id="SVGID_9_" x1="255.545" x2="255.545" y1="282.492" y2="382.889" gradientUnits="userSpaceOnUse"><stop offset=".415" stop-color="#EEE"/><stop offset=".577" stop-color="#E1E1E1"/><stop offset=".876" stop-color="#BFBFBF"/><stop offset=".897" stop-color="#BCBCBC"/></linearGradient><path fill="url(#SVGID_9_)" d="M296,342c0,0,8-48-34-58s-61,33-61,33s-14,42,13,61c0,0,30,11,88,0C302,378,332,362,296,342z"/><linearGradient id="SVGID_10_" x1="234.438" x2="215.456" y1="285.83" y2="318.707" gradientUnits="userSpaceOnUse"><stop offset="0" stop-color="#EEE"/><stop offset=".212" stop-color="#E1E1E1"/><stop offset=".602" stop-color="#BFBFBF"/><stop offset=".631" stop-color="#BCBCBC"/></linearGradient><path fill="url(#SVGID_10_)" d="M225,320c0,0,2-19,8-35C233,285,188,319,225,320z"/><linearGradient id="SVGID_11_" x1="218.514" x2="238.486" y1="309.765" y2="298.235" gradientUnits="userSpaceOnUse"><stop offset="0" stop-color="#C97B63"/><stop offset=".225" stop-color="#D88970"/><stop offset=".649" stop-color="#FFAB91"/></linearGradient><path fill="url(#SVGID_11_)" d="M225,321c0,0-2-21,7-34c0,0,4,15,7,16C239,303,225,314,225,321z"/><linearGradient id="SVGID_12_" x1="305.889" x2="293.341" y1="375.064" y2="353.329" gradientUnits="userSpaceOnUse"><stop offset=".277" stop-color="#000A12"/><stop offset=".686" stop-color="#212C33"/><stop offset=".749" stop-color="#263238"/></linearGradient><path fill="url(#SVGID_12_)" d="M306,375c0,0-21,1-23-13c0,0,11-15,26-10C309,352,317,365,306,375z"/><radialGradient id="SVGID_13_" cx="271.5" cy="339.5" r="4.5" gradientUnits="userSpaceOnUse"><stop offset="0" stop-color="#000A12"/><stop offset=".402" stop-color="#0C171E"/><stop offset="1" stop-color="#263238"/></radialGradient><circle cx="271.5" cy="339.5" r="4.5" fill="url(#SVGID_13_)"/><radialGradient id="SVGID_14_" cx="293.5" cy="337.5" r="4.5" gradientUnits="userSpaceOnUse"><stop offset="0" stop-color="#000A12"/><stop offset=".402" stop-color="#0C171E"/><stop offset="1" stop-color="#263238"/></radialGradient><circle cx="293.5" cy="337.5" r="4.5" fill="url(#SVGID_14_)"/><linearGradient id="SVGID_15_" x1="130.559" x2="101.197" y1="141.846" y2="192.701" gradientTransform="matrix(0.9992 3.966056e-02 -3.966056e-02 0.9992 8.3138 -4.5185)" gradientUnits="userSpaceOnUse"><stop offset=".195" stop-color="#EEE"/><stop offset=".45" stop-color="#E1E1E1"/><stop offset=".919" stop-color="#BFBFBF"/><stop offset=".954" stop-color="#BCBCBC"/></linearGradient><path fill="url(#SVGID_15_)" d="M78.4,177.3c0,0,15.5-12.4,24.4-10c8.9,2.4,0.3,18,23,25.9c22.7,7.9,41.2-29.4,41.2-29.4 s-15.3,7.4-43.2-21.7S70.3,153.9,78.4,177.3z"/></g><g><linearGradient id="SVGID_16_" x1="376" x2="376" y1="396" y2="345" gradientUnits="userSpaceOnUse"><stop offset=".226" stop-color="#002171"/><stop offset=".463" stop-color="#002F80"/><stop offset=".831" stop-color="#004BA0"/></linearGradient><polygon fill="url(#SVGID_16_)" points="408 375 344 396 344 360 408 345"/><linearGradient id="SVGID_17_" x1="441.5" x2="441.5" y1="396" y2="345" gradientUnits="userSpaceOnUse"><stop offset=".226" stop-color="#002171"/><stop offset=".463" stop-color="#002F80"/><stop offset=".831" stop-color="#004BA0"/></linearGradient><polygon fill="url(#SVGID_17_)" points="408 375 475 396 474 362 408 345"/><linearGradient id="SVGID_18_" x1="376" x2="376" y1="468" y2="360" gradientUnits="userSpaceOnUse"><stop offset=".226" stop-color="#003C8F"/><stop offset=".455" stop-color="#004A9E"/><stop offset=".831" stop-color="#0069C0"/></linearGradient><polygon fill="url(#SVGID_18_)" points="408 468 344 451 344 360 408 375"/><linearGradient id="SVGID_19_" x1="442" x2="442" y1="468" y2="362" gradientUnits="userSpaceOnUse"><stop offset=".226" stop-color="#003C8F"/><stop offset=".455" stop-color="#004A9E"/><stop offset=".831" stop-color="#0069C0"/></linearGradient><polygon fill="url(#SVGID_19_)" points="408 468 476 450 474 362 408 375"/><linearGradient id="SVGID_20_" x1="472.473" x2="442.527" y1="406.934" y2="355.066" gradientUnits="userSpaceOnUse"><stop offset=".287" stop-color="#0069C0"/><stop offset=".661" stop-color="#2286C3"/></linearGradient><polygon fill="url(#SVGID_20_)" points="444 406 507 387 474 362 408 375"/><linearGradient id="SVGID_21_" x1="344.777" x2="374.223" y1="406.501" y2="355.499" gradientUnits="userSpaceOnUse"><stop offset=".287" stop-color="#0069C0"/><stop offset=".661" stop-color="#2286C3"/></linearGradient><polygon fill="url(#SVGID_21_)" points="376 403 311 387 344 360 408 375"/><linearGradient id="SVGID_22_" x1="374.44" x2="344.56" y1="364.376" y2="312.624" gradientUnits="userSpaceOnUse"><stop offset=".262" stop-color="#0069C0"/><stop offset=".422" stop-color="#0F75C1"/><stop offset=".679" stop-color="#2286C3"/></linearGradient><polygon fill="url(#SVGID_22_)" points="380 318 311 332 344 360 408 345"/><linearGradient id="SVGID_23_" x1="441.676" x2="469.324" y1="364.443" y2="316.557" gradientUnits="userSpaceOnUse"><stop offset=".323" stop-color="#0069C0"/><stop offset=".438" stop-color="#0F75C1"/><stop offset=".623" stop-color="#2286C3"/></linearGradient><polygon fill="url(#SVGID_23_)" points="440 321 503 336 474 362 408 345"/></g><linearGradient id="XMLID_2_" x1="290.74" x2="310.035" y1="200.501" y2="200.501" gradientUnits="userSpaceOnUse"><stop offset="0" stop-color="#1565C0"/><stop offset=".394" stop-color="#1463BE"/><stop offset=".62" stop-color="#105CB5"/><stop offset=".804" stop-color="#0A50A7"/><stop offset=".964" stop-color="#024094"/><stop offset=".994" stop-color="#003C8F"/></linearGradient><path id="XMLID_303_" fill="url(#XMLID_2_)" d="M310,200.5c0,5.3-4.3,9.6-9.6,9.6c-5.3,0-9.6-4.3-9.6-9.6c0-5.3,4.3-9.6,9.6-9.6	C305.7,190.9,310,195.2,310,200.5z"/><linearGradient id="XMLID_3_" x1="295.683" x2="304.119" y1="92.391" y2="92.391" gradientUnits="userSpaceOnUse"><stop offset="0" stop-color="#1565C0"/><stop offset=".394" stop-color="#1463BE"/><stop offset=".62" stop-color="#105CB5"/><stop offset=".804" stop-color="#0A50A7"/><stop offset=".964" stop-color="#024094"/><stop offset=".994" stop-color="#003C8F"/></linearGradient><path id="XMLID_308_" fill="url(#XMLID_3_)" d="M304.1,92.4c0,2.3-1.9,4.2-4.2,4.2c-2.3,0-4.2-1.9-4.2-4.2c0-2.3,1.9-4.2,4.2-4.2	C302.2,88.2,304.1,90.1,304.1,92.4z"/><linearGradient id="XMLID_4_" x1="256.965" x2="280.435" y1="53.061" y2="53.061" gradientUnits="userSpaceOnUse"><stop offset="0" stop-color="#1565C0"/><stop offset=".394" stop-color="#1463BE"/><stop offset=".62" stop-color="#105CB5"/><stop offset=".804" stop-color="#0A50A7"/><stop offset=".964" stop-color="#024094"/><stop offset=".994" stop-color="#003C8F"/></linearGradient><path id="XMLID_309_" fill="url(#XMLID_4_)" d="M280.4,53.1c0,6.5-5.3,11.7-11.7,11.7S257,59.5,257,53.1c0-6.5,5.3-11.7,11.7-11.7	S280.4,46.6,280.4,53.1z"/><linearGradient id="XMLID_5_" x1="395.563" x2="413.554" y1="186.168" y2="186.168" gradientUnits="userSpaceOnUse"><stop offset="0" stop-color="#1565C0"/><stop offset=".394" stop-color="#1463BE"/><stop offset=".62" stop-color="#105CB5"/><stop offset=".804" stop-color="#0A50A7"/><stop offset=".964" stop-color="#024094"/><stop offset=".994" stop-color="#003C8F"/></linearGradient><path id="XMLID_437_" fill="url(#XMLID_5_)" d="M413.6,186.2c0,5-4,9-9,9c-5,0-9-4-9-9c0-5,4-9,9-9	C409.5,177.2,413.6,181.2,413.6,186.2z"/><linearGradient id="XMLID_6_" x1="370.631" x2="374.563" y1="124.422" y2="124.422" gradientUnits="userSpaceOnUse"><stop offset="0" stop-color="#1565C0"/><stop offset=".394" stop-color="#1463BE"/><stop offset=".62" stop-color="#105CB5"/><stop offset=".804" stop-color="#0A50A7"/><stop offset=".964" stop-color="#024094"/><stop offset=".994" stop-color="#003C8F"/></linearGradient><path id="XMLID_440_" fill="url(#XMLID_6_)" d="M374.6,124.4c0,1.1-0.9,2-2,2c-1.1,0-2-0.9-2-2c0-1.1,0.9-2,2-2	C373.7,122.5,374.6,123.3,374.6,124.4z"/><linearGradient id="XMLID_7_" x1="300.195" x2="313.751" y1="145.84" y2="145.84" gradientUnits="userSpaceOnUse"><stop offset="0" stop-color="#1565C0"/><stop offset=".394" stop-color="#1463BE"/><stop offset=".62" stop-color="#105CB5"/><stop offset=".804" stop-color="#0A50A7"/><stop offset=".964" stop-color="#024094"/><stop offset=".994" stop-color="#003C8F"/></linearGradient><path id="XMLID_441_" fill="url(#XMLID_7_)" d="M313.8,145.8c0,3.7-3,6.8-6.8,6.8c-3.7,0-6.8-3-6.8-6.8s3-6.8,6.8-6.8	C310.7,139.1,313.8,142.1,313.8,145.8z"/></svg>